<?xml version="1.0" encoding="UTF-8" standalone="no"?>
<svg
   xmlns:ns="http://creativecommons.org/"
   xmlns:dc="http://purl.org/dc/elements/1.1/"
   xmlns:cc="http://creativecommons.org/ns#"
   xmlns:rdf="http://www.w3.org/1999/02/22-rdf-syntax-ns#"
   xmlns:svg="http://www.w3.org/2000/svg"
   xmlns="http://www.w3.org/2000/svg"
   version="1.1"
   x="0px"
   y="0px"
   width="300"
   height="300"
   viewBox="0 0 300 300"
   xml:space="preserve"
   id="svg11"><metadata
     id="metadata17"><rdf:RDF><ns:Work
         rdf:about=""><dc:format>image/svg+xml</dc:format><dc:type
           rdf:resource="http://purl.org/dc/dcmitype/StillImage" /></ns:Work><cc:Work
         rdf:about=""><dc:format>image/svg+xml</dc:format><dc:type
           rdf:resource="http://purl.org/dc/dcmitype/StillImage" /><dc:title></dc:title></cc:Work></rdf:RDF></metadata><defs
     id="defs15" /><path
     id="robotbody"
     d="m 163.97497,28.541016 c -0.50748,10.238753 -6.27198,20.680092 -25.92459,24.230067 -20.66122,1.043358 -41.859116,9.125171 -56.137524,27.612412 -25.260915,32.707025 -25.08514,76.712715 0.968062,107.271985 8.497026,9.96667 21.152862,17.3195 35.219332,21.49199 2.70771,1.36513 6.97106,2.39678 13.20054,2.97129 0.50001,0.0461 0.98075,0.10251 1.46635,0.15603 0.37782,0.0499 0.75742,0.0838 1.13583,0.12919 22.72315,2.83649 29.19259,13.93441 29.73141,24.80553 h 4.91582 2.32536 30.88403 c 2.72351,0 4.9158,-2.19229 4.9158,-4.9158 v -4.70274 -2.13074 c 0.20002,-6.22911 2.4607,-12.70443 9.09508,-17.67678 8.77954,4.95639 19.87935,1.99995 24.98002,-6.69758 l 1.21469,-2.07034 c 1.60569,-2.73799 2.42169,-5.71258 2.51496,-8.66222 0.19034,-6.02057 -2.63074,-11.93794 -7.87536,-15.56785 a 44.948097,44.948097 0 0 1 -4.04674,-1.77841 35.14124,35.848782 0 0 1 -16.43188,-10.17891 l -1.53683,-0.89089 c 0.018,-0.26884 0.0289,-0.54641 0.0453,-0.81706 a 35.14124,35.848782 0 0 1 -7.95925,-22.64796 v -0.0671 a 35.14124,35.848782 0 0 1 0.45635,-5.44933 35.14124,35.848782 0 0 1 -0.45635,-5.58692 v -0.0856 a 35.14124,35.848782 0 0 1 7.36365,-21.89464 c -0.0271,-0.28254 -0.049,-0.59869 -0.0772,-0.8741 l 1.51333,-0.86069 a 35.14124,35.848782 0 0 1 17.21707,-10.913768 44.948097,44.948097 0 0 1 5.88051,-2.471323 c 4.33988,-3.432731 6.7897,-8.530711 6.92744,-13.814595 0.0844,-3.236022 -0.69674,-6.54098 -2.4361,-9.568208 l -1.19456,-2.080411 C 236.80958,55.999051 225.60806,52.959668 216.7536,57.992202 l -0.67948,0.385883 c -6.86832,-5.000769 -9.19574,-11.577052 -9.39876,-17.899917 v -2.130743 -4.890641 c 0,-2.723515 -2.19229,-4.915808 -4.9158,-4.915808 h -30.54345 -2.66594 z"
     style="fill:#ff6600;stroke-width:0.85900795" /></svg>