<?xml version="1.0" encoding="UTF-8" standalone="no"?>
<svg
   xmlns:ns="http://creativecommons.org/"
   xmlns:dc="http://purl.org/dc/elements/1.1/"
   xmlns:cc="http://creativecommons.org/ns#"
   xmlns:rdf="http://www.w3.org/1999/02/22-rdf-syntax-ns#"
   xmlns:svg="http://www.w3.org/2000/svg"
   xmlns="http://www.w3.org/2000/svg"
   xmlns:sodipodi="http://sodipodi.sourceforge.net/DTD/sodipodi-0.dtd"
   xmlns:inkscape="http://www.inkscape.org/namespaces/inkscape"
   id="svg11"
   xml:space="preserve"
   viewBox="0 0 300 300"
   height="300"
   width="300"
   y="0px"
   x="0px"
   version="1.1"
   sodipodi:docname="robotbody.svg"
   inkscape:version="0.92.2 (5c3e80d, 2017-08-06)"><sodipodi:namedview
     pagecolor="#ffffff"
     bordercolor="#666666"
     borderopacity="1"
     objecttolerance="10"
     gridtolerance="10"
     guidetolerance="10"
     inkscape:pageopacity="0"
     inkscape:pageshadow="2"
     inkscape:window-width="1440"
     inkscape:window-height="846"
     id="namedview916"
     showgrid="false"
     inkscape:zoom="1.03"
     inkscape:cx="150"
     inkscape:cy="150"
     inkscape:window-x="0"
     inkscape:window-y="22"
     inkscape:window-maximized="0"
     inkscape:current-layer="svg11" /><metadata
     id="metadata17"><rdf:RDF><ns:Work
         rdf:about=""><dc:format>image/svg+xml</dc:format><dc:type
           rdf:resource="http://purl.org/dc/dcmitype/StillImage" /></ns:Work><cc:Work
         rdf:about=""><dc:format>image/svg+xml</dc:format><dc:type
           rdf:resource="http://purl.org/dc/dcmitype/StillImage" /><dc:title /></cc:Work></rdf:RDF></metadata><defs
     id="defs15" /><path
     style="stroke-width:0.99999988"
     d="M 154.23633 58.410156 C 128.7927 58.623059 102.0256 67.815789 84.359375 90.689453 C 54.952301 128.76478 55.156926 179.99329 85.486328 215.56836 C 113.00145 247.84247 177.92578 256.6734 211.67773 227.2832 L 219.3418 230.95703 L 267.07031 203.28906 C 267.03719 203.17793 267.01474 203.06391 266.98047 202.95312 A 46.372211 56.53598 0 0 1 231.86133 148.17773 A 46.372211 56.53598 0 0 1 267.71875 93.185547 C 267.80508 92.785696 267.86799 92.381333 267.93945 91.978516 L 217.73633 68.767578 L 208.25977 73.308594 C 194.92124 64.060111 175.02411 58.236212 154.23633 58.410156 z "
     id="robotbody" /></svg>