<?xml version="1.0" encoding="UTF-8" standalone="no"?>
<svg
   xmlns:ns="http://creativecommons.org/"
   xmlns:dc="http://purl.org/dc/elements/1.1/"
   xmlns:cc="http://creativecommons.org/ns#"
   xmlns:rdf="http://www.w3.org/1999/02/22-rdf-syntax-ns#"
   xmlns:svg="http://www.w3.org/2000/svg"
   xmlns="http://www.w3.org/2000/svg"
   xmlns:sodipodi="http://sodipodi.sourceforge.net/DTD/sodipodi-0.dtd"
   xmlns:inkscape="http://www.inkscape.org/namespaces/inkscape"
   id="svg11"
   xml:space="preserve"
   viewBox="0 0 300 300"
   height="300"
   width="300"
   y="0px"
   x="0px"
   version="1.1"
   sodipodi:docname="robotbody.svg"
   inkscape:version="0.92.2 (5c3e80d, 2017-08-06)"><sodipodi:namedview
     pagecolor="#ffffff"
     bordercolor="#666666"
     borderopacity="1"
     objecttolerance="10"
     gridtolerance="10"
     guidetolerance="10"
     inkscape:pageopacity="0"
     inkscape:pageshadow="2"
     inkscape:window-width="1362"
     inkscape:window-height="856"
     id="namedview871"
     showgrid="false"
     inkscape:measure-start="138.901,275.264"
     inkscape:measure-end="263.214,273.996"
     inkscape:zoom="1.5766667"
     inkscape:cx="200.73996"
     inkscape:cy="150"
     inkscape:window-x="0"
     inkscape:window-y="22"
     inkscape:window-maximized="0"
     inkscape:current-layer="svg11" /><metadata
     id="metadata17"><rdf:RDF><ns:Work
         rdf:about=""><dc:format>image/svg+xml</dc:format><dc:type
           rdf:resource="http://purl.org/dc/dcmitype/StillImage" /></ns:Work><cc:Work
         rdf:about=""><dc:format>image/svg+xml</dc:format><dc:type
           rdf:resource="http://purl.org/dc/dcmitype/StillImage" /><dc:title></dc:title></cc:Work></rdf:RDF></metadata><defs
     id="defs15" /><path
     style="fill:#ff6600;stroke-width:0.99999988"
     d="M 180.52344 28.541016 C 179.93266 40.46029 173.22202 52.615402 150.34375 56.748047 C 126.29134 57.962655 101.61416 67.370963 84.992188 88.892578 C 55.585113 126.96792 55.789739 178.19641 86.119141 213.77148 C 96.010813 225.37401 110.7439 233.93369 127.11914 238.79102 C 130.27128 240.38022 135.23439 241.58119 142.48633 242.25 C 143.06841 242.30368 143.62806 242.36934 144.19336 242.43164 C 144.63319 242.48972 145.0751 242.52917 145.51562 242.58203 C 171.9684 245.88409 179.49969 258.80355 180.12695 271.45898 L 185.84961 271.45898 L 188.55664 271.45898 L 224.50977 271.45898 C 227.6803 271.45898 230.23242 268.90686 230.23242 265.73633 L 230.23242 260.26172 L 230.23242 257.78125 C 230.46527 250.52974 233.09701 242.9916 240.82031 237.20312 C 251.04086 242.97302 263.96253 239.53133 269.90039 229.40625 L 271.31445 226.99609 C 273.18368 223.80871 274.13362 220.34589 274.24219 216.91211 C 274.46378 209.90337 271.17966 203.01476 265.07422 198.78906 A 52.325581 52.325581 0 0 1 260.36328 196.71875 A 40.909092 41.732765 0 0 1 241.23438 184.86914 L 239.44531 183.83203 C 239.46621 183.51906 239.47895 183.19593 239.49805 182.88086 A 40.909092 41.732765 0 0 1 230.23242 156.51562 L 230.23242 156.4375 A 40.909092 41.732765 0 0 1 230.76367 150.09375 A 40.909092 41.732765 0 0 1 230.23242 143.58984 L 230.23242 143.49023 A 40.909092 41.732765 0 0 1 238.80469 118.00195 C 238.77319 117.67304 238.74764 117.305 238.71484 116.98438 L 240.47656 115.98242 A 40.909092 41.732765 0 0 1 260.51953 103.27734 A 52.325581 52.325581 0 0 1 267.36523 100.40039 C 272.41743 96.404234 275.26935 90.469505 275.42969 84.318359 C 275.52789 80.551198 274.61859 76.703786 272.59375 73.179688 L 271.20312 70.757812 C 265.31268 60.505878 252.27261 56.967631 241.96484 62.826172 L 241.17383 63.275391 C 233.17819 57.453829 230.46877 49.798159 230.23242 42.4375 L 230.23242 39.957031 L 230.23242 34.263672 C 230.23242 31.093138 227.6803 28.541016 224.50977 28.541016 L 188.95312 28.541016 L 185.84961 28.541016 L 180.52344 28.541016 z "
     id="robotbody" /><path
     style="fill:#ff6600;stroke:#000000;stroke-width:1px;stroke-linecap:butt;stroke-linejoin:miter;stroke-opacity:1"
     d="M 515.64482,123.67865 Z"
     id="path4599"
     inkscape:connector-curvature="0" /></svg>