<?xml version="1.0" encoding="UTF-8" standalone="no"?>
<svg
   xmlns:ns="http://creativecommons.org/"
   xmlns:dc="http://purl.org/dc/elements/1.1/"
   xmlns:cc="http://creativecommons.org/ns#"
   xmlns:rdf="http://www.w3.org/1999/02/22-rdf-syntax-ns#"
   xmlns:svg="http://www.w3.org/2000/svg"
   xmlns="http://www.w3.org/2000/svg"
   xmlns:sodipodi="http://sodipodi.sourceforge.net/DTD/sodipodi-0.dtd"
   xmlns:inkscape="http://www.inkscape.org/namespaces/inkscape"
   id="svg11"
   xml:space="preserve"
   viewBox="0 0 300 300"
   height="300"
   width="300"
   y="0px"
   x="0px"
   version="1.1"
   sodipodi:docname="robotbody1.svg"
   inkscape:version="0.92.2 (5c3e80d, 2017-08-06)"><sodipodi:namedview
     pagecolor="#ffffff"
     bordercolor="#666666"
     borderopacity="1"
     objecttolerance="10"
     gridtolerance="10"
     guidetolerance="10"
     inkscape:pageopacity="0"
     inkscape:pageshadow="2"
     inkscape:window-width="1440"
     inkscape:window-height="856"
     id="namedview916"
     showgrid="false"
     inkscape:zoom="1.03"
     inkscape:cx="150"
     inkscape:cy="150"
     inkscape:window-x="0"
     inkscape:window-y="22"
     inkscape:window-maximized="0"
     inkscape:current-layer="svg11" /><metadata
     id="metadata17"><rdf:RDF><ns:Work
         rdf:about=""><dc:format>image/svg+xml</dc:format><dc:type
           rdf:resource="http://purl.org/dc/dcmitype/StillImage" /></ns:Work><cc:Work
         rdf:about=""><dc:format>image/svg+xml</dc:format><dc:type
           rdf:resource="http://purl.org/dc/dcmitype/StillImage" /><dc:title></dc:title></cc:Work></rdf:RDF></metadata><defs
     id="defs15" /><path
     style="stroke-width:0.99999988"
     d="M 120.25586 60.351562 C 94.812226 60.564466 68.045131 69.757195 50.378906 92.630859 C 20.971832 130.70619 21.176457 181.9347 51.505859 217.50977 C 79.020981 249.78388 143.94532 258.61481 177.69727 229.22461 L 185.36133 232.89844 L 216.50586 214.84375 L 216.50586 209.70898 L 216.50586 200 L 216.50586 199.0293 C 216.50586 198.70568 216.7347 198.28743 216.50586 198.05859 C 216.27702 197.82975 215.76204 198.28743 215.5332 198.05859 C 215.04777 197.57315 216.01864 195.62998 215.5332 195.14453 C 215.30437 194.9157 214.79134 195.37337 214.5625 195.14453 C 214.33366 194.9157 214.79134 194.40266 214.5625 194.17383 C 214.33366 193.94499 213.82063 194.40266 213.5918 194.17383 C 213.36296 193.94499 213.82063 193.43197 213.5918 193.20312 C 213.36296 192.97429 212.84993 193.43196 212.62109 193.20312 C 212.46814 193.05017 212.48388 192.82737 212.53516 192.58984 L 182.88086 181.10156 L 198.61914 140.47656 A 46.372211 56.53598 0 0 1 209.14844 113.29102 L 211.28711 107.77148 L 213.04492 108.45312 A 46.372211 56.53598 0 0 1 214.05469 107.43555 L 294.67578 140.74414 L 295.82812 117.0293 L 184.08398 70.861328 L 183.75586 70.708984 L 183.73828 70.716797 L 183.7168 70.708984 L 183.7168 70.728516 L 174.2793 75.25 C 160.94073 66.001517 141.04364 60.177618 120.25586 60.351562 z "
     id="robotbody" /></svg>