<?xml version="1.0" encoding="UTF-8" standalone="no"?>
<svg
   xmlns:ns="http://creativecommons.org/"
   xmlns:dc="http://purl.org/dc/elements/1.1/"
   xmlns:cc="http://creativecommons.org/ns#"
   xmlns:rdf="http://www.w3.org/1999/02/22-rdf-syntax-ns#"
   xmlns:svg="http://www.w3.org/2000/svg"
   xmlns="http://www.w3.org/2000/svg"
   id="svg11"
   xml:space="preserve"
   viewBox="0 0 300 300"
   height="300"
   width="300"
   y="0px"
   x="0px"
   version="1.1"><metadata
     id="metadata17"><rdf:RDF><ns:Work
         rdf:about=""><dc:format>image/svg+xml</dc:format><dc:type
           rdf:resource="http://purl.org/dc/dcmitype/StillImage" /></ns:Work><cc:Work
         rdf:about=""><dc:format>image/svg+xml</dc:format><dc:type
           rdf:resource="http://purl.org/dc/dcmitype/StillImage" /><dc:title></dc:title></cc:Work></rdf:RDF></metadata><defs
     id="defs15" /><path
     id="path867"
     d="M 127.13477 52.771484 C 106.47355 53.814842 85.274502 61.895573 70.996094 80.382812 C 45.735179 113.08984 45.911642 157.09698 71.964844 187.65625 C 80.46187 197.62292 93.117127 204.97595 107.18359 209.14844 C 109.8913 210.51357 114.15529 211.54463 120.38477 212.11914 C 120.88478 212.16524 121.36596 212.22187 121.85156 212.27539 C 122.22938 212.32529 122.60792 212.35891 122.98633 212.4043 C 124.63297 212.60984 126.18419 212.86327 127.66406 213.15234 C 130.20306 213.08277 143.71743 212.24464 169.8125 202.45898 C 198.92331 191.54243 205.1582 207.55664 205.1582 207.55664 L 205.11719 207.91602 C 213.85464 212.66911 224.78364 209.69765 229.83398 201.08594 L 231.04883 199.01562 C 232.65452 196.27764 233.47118 193.30316 233.56445 190.35352 C 233.75479 184.33295 230.93212 178.41507 225.6875 174.78516 A 44.948097 44.948097 0 0 1 221.64062 173.00781 A 35.14124 35.848782 0 0 1 205.20898 162.82812 L 203.67188 161.9375 C 203.68988 161.66866 203.70235 161.39174 203.71875 161.12109 A 35.14124 35.848782 0 0 1 195.75977 138.47266 L 195.75977 138.4043 A 35.14124 35.848782 0 0 1 196.21484 132.95508 A 35.14124 35.848782 0 0 1 195.75977 127.36914 L 195.75977 127.2832 A 35.14124 35.848782 0 0 1 203.12305 105.38867 C 203.09595 105.10613 203.07312 104.78908 203.04492 104.51367 L 204.55859 103.6543 A 35.14124 35.848782 0 0 1 221.77539 92.740234 A 44.948097 44.948097 0 0 1 227.65625 90.269531 C 231.99613 86.8368 234.44624 81.738962 234.58398 76.455078 C 234.66838 73.219056 233.8878 69.913947 232.14844 66.886719 L 230.95312 64.804688 C 225.89318 55.998193 214.69235 52.959653 205.83789 57.992188 L 205.1582 58.378906 C 205.1582 58.378906 198.92331 74.391161 169.8125 63.474609 C 140.7017 52.558058 127.13477 52.771484 127.13477 52.771484 z "
     style="fill:#ff6600;stroke-width:0.85900795" /></svg>